G75*
G70*
%OFA0B0*%
%FSLAX24Y24*%
%IPPOS*%
%LPD*%
%AMOC8*
5,1,8,0,0,1.08239X$1,22.5*
%
%ADD10C,0.1655*%
%ADD11C,0.0620*%
%ADD12C,0.0830*%
%ADD13C,0.1130*%
%ADD14OC8,0.0680*%
%ADD15C,0.0476*%
%ADD16C,0.0769*%
%ADD17C,0.0966*%
%ADD18C,0.0552*%
%ADD19C,0.0867*%
D10*
X003983Y001825D03*
X014483Y001825D03*
X014483Y028825D03*
X003983Y028825D03*
D11*
X004983Y024595D02*
X004983Y024055D01*
X005983Y024055D02*
X005983Y024595D01*
X007358Y024595D02*
X007358Y024055D01*
X008358Y024055D02*
X008358Y024595D01*
X013858Y026555D02*
X013858Y027095D01*
X014858Y027095D02*
X014858Y026555D01*
X008608Y014095D02*
X008608Y013555D01*
X007608Y013555D02*
X007608Y014095D01*
D12*
X006983Y028075D03*
X011358Y028075D03*
D13*
X012361Y029079D03*
X012361Y027071D03*
X010354Y027071D03*
X010354Y029079D03*
X007986Y029079D03*
X007986Y027071D03*
X005979Y027071D03*
X005979Y029079D03*
D14*
X010608Y025700D03*
X010608Y024700D03*
X010608Y023700D03*
X010608Y022700D03*
X010608Y021700D03*
X010608Y020700D03*
X010608Y019700D03*
X010608Y018700D03*
X010608Y017700D03*
X010608Y016700D03*
X010608Y015700D03*
X010608Y014700D03*
X010608Y013700D03*
X010608Y012700D03*
X010608Y011700D03*
X010608Y010700D03*
X010608Y009700D03*
X010608Y008700D03*
X010608Y007700D03*
X010608Y006700D03*
X010608Y005700D03*
X010608Y004700D03*
X010608Y003700D03*
X010608Y002700D03*
X010608Y001700D03*
X011608Y001700D03*
X011608Y002700D03*
X011608Y003700D03*
X011608Y004700D03*
X011608Y005700D03*
X011608Y006700D03*
X011608Y007700D03*
X011608Y008700D03*
X011608Y009700D03*
X011608Y010700D03*
X011608Y011700D03*
X011608Y012700D03*
X011608Y013700D03*
X011608Y014700D03*
X011608Y015700D03*
X011608Y016700D03*
X011608Y017700D03*
X011608Y018700D03*
X011608Y019700D03*
X011608Y020700D03*
X011608Y021700D03*
X011608Y022700D03*
X011608Y023700D03*
X011608Y024700D03*
X011608Y025700D03*
D15*
X005829Y018671D03*
X005376Y018356D03*
X004904Y018514D03*
X004451Y018829D03*
X004451Y018199D03*
X004904Y017884D03*
X005376Y017727D03*
X005829Y018042D03*
X005829Y017412D03*
X005376Y017097D03*
X004904Y017254D03*
X004451Y016939D03*
X004904Y016624D03*
X005376Y016467D03*
X005829Y016782D03*
X005829Y016152D03*
X005376Y015837D03*
X004904Y015994D03*
X004451Y015679D03*
X004904Y015364D03*
X005376Y015207D03*
X005829Y015522D03*
X005829Y014892D03*
X005376Y014577D03*
X004904Y014734D03*
X004451Y014419D03*
X004904Y014105D03*
X005376Y013947D03*
X005829Y013632D03*
X005376Y013317D03*
X004904Y013475D03*
X004451Y013790D03*
X004451Y013160D03*
X004904Y012845D03*
X005376Y012687D03*
X005829Y012372D03*
X005376Y012057D03*
X004904Y012215D03*
X004451Y012530D03*
X004451Y011900D03*
X004904Y011585D03*
X005376Y011427D03*
X005829Y011112D03*
X005376Y010797D03*
X004904Y010955D03*
X004451Y011270D03*
X004451Y010640D03*
X004864Y010325D03*
X005376Y010168D03*
X005829Y010482D03*
X005829Y009853D03*
X005376Y009538D03*
X004864Y009695D03*
X004412Y009380D03*
X004864Y009065D03*
X005376Y008908D03*
X005829Y009223D03*
X005829Y008593D03*
X004864Y008435D03*
X004412Y008750D03*
X004412Y010010D03*
X005829Y011742D03*
X005829Y013002D03*
X005829Y014262D03*
X004451Y015049D03*
X004451Y016309D03*
X004451Y017569D03*
X005376Y018986D03*
D16*
X003870Y021959D03*
X003870Y005463D03*
D17*
X004904Y007343D03*
X004904Y020079D03*
D18*
X016733Y020450D03*
X016733Y019450D03*
X016733Y018450D03*
X016733Y017450D03*
X017483Y016950D03*
X018233Y016450D03*
X018983Y015950D03*
X018233Y015450D03*
X018983Y014950D03*
X018233Y014450D03*
X018983Y013950D03*
X018233Y013450D03*
X018983Y012950D03*
X018233Y012450D03*
X018983Y011950D03*
X018233Y011450D03*
X018983Y010950D03*
X018233Y010450D03*
X018983Y009950D03*
X018233Y009450D03*
X018983Y008950D03*
X018233Y008450D03*
X018983Y007950D03*
X018233Y007450D03*
X018983Y006950D03*
X018233Y006450D03*
X018983Y005950D03*
X018233Y005450D03*
X018983Y004950D03*
X018233Y004450D03*
X018983Y003950D03*
X018233Y003450D03*
X018983Y002950D03*
X017483Y002950D03*
X017483Y003950D03*
X016733Y003450D03*
X016733Y004450D03*
X016733Y005450D03*
X017483Y004950D03*
X017483Y005950D03*
X017483Y006950D03*
X017483Y007950D03*
X016733Y007450D03*
X016733Y006450D03*
X016733Y008450D03*
X016733Y009450D03*
X017483Y008950D03*
X017483Y009950D03*
X017483Y010950D03*
X016733Y010450D03*
X016733Y011450D03*
X016733Y012450D03*
X016733Y013450D03*
X017483Y012950D03*
X017483Y011950D03*
X017483Y013950D03*
X017483Y014950D03*
X016733Y014450D03*
X016733Y015450D03*
X016733Y016450D03*
X017483Y015950D03*
X018233Y017450D03*
X018983Y016950D03*
X018983Y017950D03*
X018233Y018450D03*
X018983Y018950D03*
X018233Y019450D03*
X018983Y019950D03*
X018233Y020450D03*
X018983Y020950D03*
X018233Y021450D03*
X018983Y021950D03*
X018233Y022450D03*
X018983Y022950D03*
X018233Y023450D03*
X018983Y023950D03*
X018233Y024450D03*
X018983Y024950D03*
X018233Y025450D03*
X018983Y025950D03*
X018233Y026450D03*
X018983Y026950D03*
X018233Y027450D03*
X017483Y026950D03*
X016733Y026450D03*
X016733Y025450D03*
X017483Y024950D03*
X017483Y023950D03*
X017483Y022950D03*
X016733Y022450D03*
X016733Y021450D03*
X017483Y020950D03*
X017483Y019950D03*
X017483Y018950D03*
X017483Y017950D03*
X017483Y021950D03*
X016733Y023450D03*
X016733Y024450D03*
X017483Y025950D03*
X016733Y027450D03*
D19*
X018233Y028860D03*
X018232Y001647D03*
M02*
