%
M48
M72
T01C0.0197
T02C0.0256
T03C0.0315
T04C0.0360
T05C0.0400
T06C0.0472
T07C0.0500
T08C0.0689
T09C0.0700
T10C0.0787
T11C0.1575
%
T01
X6518Y7963
X6498Y8593
X6498Y9223
X6498Y9853
X6498Y10472
X6498Y10827
X6498Y11742
X6498Y12372
X6575Y14575
X6577Y15522
X6577Y16152
X6577Y17067
X6577Y17422
X6577Y18042
X6577Y18671
X6577Y19301
X6597Y19931
X4858Y22825
X12483Y13450
X12483Y12950
X13608Y15450
X12733Y16325
X15108Y13950
X15108Y19575
X14608Y19575
X14108Y25450
T02
X5829Y18671
X5376Y18356
X4904Y18514
X4451Y18829
X4451Y18199
X4904Y17884
X5376Y17727
X5829Y18042
X5829Y17412
X5376Y17097
X4904Y17254
X4451Y16939
X4904Y16624
X5376Y16467
X5829Y16782
X5829Y16152
X5376Y15837
X4904Y15994
X4451Y15679
X4904Y15364
X5376Y15207
X5829Y15522
X5829Y14892
X5376Y14577
X4904Y14734
X4451Y14419
X4904Y14105
X5376Y13947
X5829Y13632
X5376Y13317
X4904Y13475
X4451Y13790
X4451Y13160
X4904Y12845
X5376Y12687
X5829Y12372
X5376Y12057
X4904Y12215
X4451Y12530
X4451Y11900
X4904Y11585
X5376Y11427
X5829Y11112
X5376Y10797
X4904Y10955
X4451Y11270
X4451Y10640
X4864Y10325
X5376Y10168
X5829Y10482
X5829Y9853
X5376Y9538
X4864Y9695
X4412Y9380
X4864Y9065
X5376Y8908
X5829Y9223
X5829Y8593
X4864Y8435
X4412Y8750
X4412Y10010
X5829Y11742
X5829Y13002
X5829Y14262
X4451Y15049
X4451Y16309
X4451Y17569
X5376Y18986
T03
X16733Y19450
X16733Y18450
X16733Y17450
X17483Y16950
X18233Y16450
X18983Y15950
X18233Y15450
X18983Y14950
X18233Y14450
X18983Y13950
X18233Y13450
X18983Y12950
X18233Y12450
X18983Y11950
X18233Y11450
X18983Y10950
X18233Y10450
X18983Y9950
X18233Y9450
X18983Y8950
X18233Y8450
X18983Y7950
X18233Y7450
X18983Y6950
X18233Y6450
X18983Y5950
X18233Y5450
X18983Y4950
X18233Y4450
X18983Y3950
X18233Y3450
X18983Y2950
X17483Y2950
X17483Y3950
X16733Y3450
X16733Y4450
X16733Y5450
X17483Y4950
X17483Y5950
X17483Y6950
X17483Y7950
X16733Y7450
X16733Y6450
X16733Y8450
X16733Y9450
X17483Y8950
X17483Y9950
X17483Y10950
X16733Y10450
X16733Y11450
X16733Y12450
X16733Y13450
X17483Y12950
X17483Y11950
X17483Y13950
X17483Y14950
X16733Y14450
X16733Y15450
X16733Y16450
X17483Y15950
X18233Y17450
X18983Y16950
X18983Y17950
X18233Y18450
X18983Y18950
X18233Y19450
X18983Y19950
X18233Y20450
X18983Y20950
X18233Y21450
X18983Y21950
X18233Y22450
X18983Y22950
X18233Y23450
X18983Y23950
X18233Y24450
X18983Y24950
X18233Y25450
X18983Y25950
X18233Y26450
X18983Y26950
X18233Y27450
X17483Y26950
X16733Y26450
X16733Y25450
X17483Y24950
X17483Y23950
X17483Y22950
X16733Y22450
X16733Y21450
X17483Y20950
X17483Y19950
X16733Y20450
X17483Y18950
X17483Y17950
X17483Y21950
X16733Y23450
X16733Y24450
X17483Y25950
X16733Y27450
T04
X14858Y26825
X13858Y26825
X8358Y24325
X7358Y24325
X5983Y24325
X4983Y24325
X7608Y13825
X8608Y13825
T05
X10608Y13700
X10608Y12700
X10608Y11700
X10608Y10700
X10608Y9700
X10608Y8700
X10608Y7700
X10608Y6700
X10608Y5700
X10608Y4700
X10608Y3700
X10608Y2700
X10608Y1700
X11608Y1700
X11608Y2700
X11608Y3700
X11608Y4700
X11608Y5700
X11608Y6700
X11608Y7700
X11608Y8700
X11608Y9700
X11608Y10700
X11608Y11700
X11608Y12700
X11608Y13700
X11608Y14700
X11608Y15700
X11608Y16700
X11608Y17700
X11608Y18700
X11608Y19700
X11608Y20700
X11608Y21700
X11608Y22700
X11608Y23700
X11608Y24700
X11608Y25700
X10608Y25700
X10608Y24700
X10608Y23700
X10608Y22700
X10608Y21700
X10608Y20700
X10608Y19700
X10608Y18700
X10608Y17700
X10608Y16700
X10608Y15700
X10608Y14700
T06
X4904Y20079
X4904Y7343
T07
X6983Y28075
X11358Y28075
T08
X3870Y21959
X3870Y5463
T09
X5979Y27071
X5979Y29079
X7986Y29079
X7986Y27071
X10354Y27071
X10354Y29079
X12361Y29079
X12361Y27071
T10
X18233Y28860
X18232Y1647
T11
X3983Y1825
X14483Y1825
X14483Y28825
X3983Y28825
M30
